<svg width="193" height="48" viewBox="0 0 193 48" fill="none" xmlns="http://www.w3.org/2000/svg">
<path d="M25.5684 14.0706L29.9629 8.70926H2.45312V0.799103H47.248L21.6133 32.9964L17.043 38.68H45.8125V46.5901H0.197266L25.5684 14.0706ZM54.5723 0.799103H63.8594V12.7522H92.3359V0.799103H101.652V46.5901H92.3359V20.6917H63.8594V46.5901H54.5723V0.799103ZM114.689 0.799103H123.977L140.617 17.4983L157.258 0.799103H166.545V46.5901H157.258V13.6604L140.617 29.6858L123.977 13.6604V46.5901H114.689V0.799103ZM178.674 41.5218C178.674 40.7405 178.83 40.0081 179.143 39.3245C179.475 38.6214 179.943 38.0159 180.549 37.5081C181.154 36.9807 181.887 36.5706 182.746 36.2776C183.605 35.9846 184.572 35.8382 185.646 35.8382C186.721 35.8382 187.688 35.9846 188.547 36.2776C189.406 36.5706 190.129 36.9807 190.715 37.5081C191.32 38.0159 191.779 38.6214 192.092 39.3245C192.424 40.0081 192.59 40.7405 192.59 41.5218C192.59 42.303 192.424 43.0452 192.092 43.7483C191.779 44.4319 191.32 45.0276 190.715 45.5354C190.129 46.0432 189.406 46.4436 188.547 46.7366C187.688 47.0491 186.721 47.2054 185.646 47.2054C184.572 47.2054 183.605 47.0491 182.746 46.7366C181.887 46.4436 181.154 46.0432 180.549 45.5354C179.943 45.0276 179.475 44.4319 179.143 43.7483C178.83 43.0452 178.674 42.303 178.674 41.5218Z" fill="white"/>
</svg>
